<svg xmlns="http://www.w3.org/2000/svg" xmlns:xlink="http://www.w3.org/1999/xlink" id="visual" viewBox="0 0 960 540" width="960" height="540" version="1.1"><g stroke-width="1" stroke-linejoin="bevel"><path d="M393 287L401 215L237 247Z" fill="#ffffff" stroke="#ffffff"/><path d="M237 247L260 356L393 287Z" fill="#f9bdde" stroke="#f9bdde"/><path d="M401 215L243 0L237 247Z" fill="#fcd9ec" stroke="#fcd9ec"/><path d="M393 287L589 287L401 215Z" fill="#f9bdde" stroke="#f9bdde"/><path d="M401 215L445 0L243 0Z" fill="#ffffff" stroke="#ffffff"/><path d="M435 540L589 287L393 287Z" fill="#fde3f1" stroke="#fde3f1"/><path d="M588 150L445 0L401 215Z" fill="#f7b3d9" stroke="#f7b3d9"/><path d="M589 287L588 150L401 215Z" fill="#f4a0d0" stroke="#f4a0d0"/><path d="M0 540L260 540L260 356Z" fill="#f7b3d9" stroke="#f7b3d9"/><path d="M260 356L435 540L393 287Z" fill="#f9bdde" stroke="#f9bdde"/><path d="M260 540L435 540L260 356Z" fill="#fff6fa" stroke="#fff6fa"/><path d="M243 0L0 207L237 247Z" fill="#fde3f1" stroke="#fde3f1"/><path d="M237 247L0 285L260 356Z" fill="#fcd9ec" stroke="#fcd9ec"/><path d="M0 207L0 285L237 247Z" fill="#feecf5" stroke="#feecf5"/><path d="M588 150L602 0L445 0Z" fill="#f9bdde" stroke="#f9bdde"/><path d="M747 0L602 0L588 150Z" fill="#f7b3d9" stroke="#f7b3d9"/><path d="M243 0L0 0L0 207Z" fill="#f4a0d0" stroke="#f4a0d0"/><path d="M435 540L603 540L589 287Z" fill="#f4a0d0" stroke="#f4a0d0"/><path d="M589 287L734 242L588 150Z" fill="#ffffff" stroke="#ffffff"/><path d="M742 373L734 242L589 287Z" fill="#fac7e2" stroke="#fac7e2"/><path d="M0 285L0 540L260 356Z" fill="#fde3f1" stroke="#fde3f1"/><path d="M603 540L742 373L589 287Z" fill="#ffffff" stroke="#ffffff"/><path d="M960 0L747 0L734 242Z" fill="#fac7e2" stroke="#fac7e2"/><path d="M734 242L747 0L588 150Z" fill="#f9bdde" stroke="#f9bdde"/><path d="M603 540L788 540L742 373Z" fill="#f4a0d0" stroke="#f4a0d0"/><path d="M960 346L960 255L734 242Z" fill="#f6aad5" stroke="#f6aad5"/><path d="M960 346L734 242L742 373Z" fill="#ffffff" stroke="#ffffff"/><path d="M788 540L960 346L742 373Z" fill="#fcd9ec" stroke="#fcd9ec"/><path d="M960 255L960 0L734 242Z" fill="#fde3f1" stroke="#fde3f1"/><path d="M788 540L960 540L960 346Z" fill="#ffffff" stroke="#ffffff"/></g></svg>